<svg width="412" height="53" viewBox="0 0 412 53" fill="none" xmlns="http://www.w3.org/2000/svg">
<path d="M35.59 3C36.57 3 37.3633 3.30333 37.97 3.91C38.6233 4.47 38.95 5.24 38.95 6.22C38.95 7.2 38.6233 7.97 37.97 8.53C37.3633 9.09 36.57 9.37 35.59 9.37H23.13V48.64C23.13 49.5733 22.78 50.3667 22.08 51.02C21.4267 51.6733 20.5867 52 19.56 52C18.5333 52 17.67 51.6733 16.97 51.02C16.3167 50.3667 15.99 49.5733 15.99 48.64V9.37H3.6C2.62 9.37 1.80333 9.09 1.15 8.53C0.543333 7.92333 0.24 7.13 0.24 6.15C0.24 5.21667 0.543333 4.47 1.15 3.91C1.80333 3.30333 2.62 3 3.6 3H35.59ZM60.2732 14.48C61.4865 14.48 62.5365 14.8067 63.4232 15.46C64.3099 16.0667 64.7532 16.8367 64.7532 17.77C64.7532 18.89 64.4499 19.7533 63.8432 20.36C63.2832 20.92 62.5832 21.2 61.7432 21.2C61.3232 21.2 60.6932 21.06 59.8532 20.78C58.8732 20.4533 58.1032 20.29 57.5432 20.29C56.0965 20.29 54.6732 20.8033 53.2732 21.83C51.9199 22.81 50.7999 24.1867 49.9132 25.96C49.0732 27.6867 48.6532 29.6233 48.6532 31.77V48.64C48.6532 49.5733 48.3265 50.3667 47.6732 51.02C47.0665 51.6733 46.2732 52 45.2932 52C44.3132 52 43.5199 51.6967 42.9132 51.09C42.3065 50.4367 42.0032 49.62 42.0032 48.64V18.68C42.0032 17.7467 42.3065 16.9533 42.9132 16.3C43.5665 15.6467 44.3599 15.32 45.2932 15.32C46.2732 15.32 47.0665 15.6467 47.6732 16.3C48.3265 16.9533 48.6532 17.7467 48.6532 18.68V22.25C49.6799 19.9633 51.2199 18.12 53.2732 16.72C55.3265 15.2733 57.6599 14.5267 60.2732 14.48ZM99.8489 14.83C100.829 14.83 101.622 15.1567 102.229 15.81C102.882 16.4167 103.209 17.2333 103.209 18.26V48.64C103.209 49.5733 102.882 50.3667 102.229 51.02C101.622 51.6733 100.829 52 99.8489 52C98.8689 52 98.0756 51.6967 97.4689 51.09C96.8622 50.4367 96.5589 49.62 96.5589 48.64V46.82C95.3456 48.4533 93.6889 49.8533 91.5889 51.02C89.4889 52.14 87.2256 52.7 84.7989 52.7C81.6256 52.7 78.7322 51.8833 76.1189 50.25C73.5522 48.6167 71.5222 46.3533 70.0289 43.46C68.5822 40.52 67.8589 37.23 67.8589 33.59C67.8589 29.95 68.5822 26.6833 70.0289 23.79C71.5222 20.85 73.5522 18.5633 76.1189 16.93C78.6856 15.2967 81.5089 14.48 84.5889 14.48C87.0622 14.48 89.3489 14.9933 91.4489 16.02C93.5956 17.0467 95.2989 18.3533 96.5589 19.94V18.26C96.5589 17.28 96.8622 16.4633 97.4689 15.81C98.0756 15.1567 98.8689 14.83 99.8489 14.83ZM85.5689 46.54C87.7622 46.54 89.6989 45.98 91.3789 44.86C93.1056 43.74 94.4356 42.2 95.3689 40.24C96.3489 38.28 96.8389 36.0633 96.8389 33.59C96.8389 31.1633 96.3489 28.97 95.3689 27.01C94.4356 25.05 93.1056 23.51 91.3789 22.39C89.6989 21.2233 87.7622 20.64 85.5689 20.64C83.3756 20.64 81.4156 21.2 79.6889 22.32C78.0089 23.44 76.6789 24.98 75.6989 26.94C74.7656 28.9 74.2989 31.1167 74.2989 33.59C74.2989 36.0633 74.7656 38.28 75.6989 40.24C76.6789 42.2 78.0089 43.74 79.6889 44.86C81.4156 45.98 83.3756 46.54 85.5689 46.54ZM140.277 14.97C141.163 14.97 141.91 15.2733 142.517 15.88C143.123 16.44 143.427 17.1167 143.427 17.91C143.427 18.33 143.263 18.9133 142.937 19.66L129.637 49.9C129.357 50.5067 128.96 50.9967 128.447 51.37C127.933 51.7433 127.373 51.9533 126.767 52C126.02 52.0933 125.32 51.9533 124.667 51.58C124.06 51.2067 123.593 50.6467 123.267 49.9L109.967 19.66C109.733 18.96 109.617 18.3767 109.617 17.91C109.617 17.1633 109.92 16.4867 110.527 15.88C111.133 15.2733 111.927 14.97 112.907 14.97C113.607 14.97 114.237 15.1567 114.797 15.53C115.357 15.8567 115.8 16.37 116.127 17.07L126.697 41.64L137.267 17.07C137.92 15.67 138.923 14.97 140.277 14.97ZM182.484 32.26C182.438 33.1 182.088 33.8233 181.434 34.43C180.781 34.99 180.011 35.27 179.124 35.27H154.484C154.811 38.6767 156.094 41.4067 158.334 43.46C160.621 45.5133 163.398 46.54 166.664 46.54C168.904 46.54 170.724 46.2133 172.124 45.56C173.524 44.9067 174.761 44.0667 175.834 43.04C176.534 42.62 177.211 42.41 177.864 42.41C178.658 42.41 179.311 42.69 179.824 43.25C180.384 43.81 180.664 44.4633 180.664 45.21C180.664 46.19 180.198 47.0767 179.264 47.87C177.911 49.2233 176.114 50.3667 173.874 51.3C171.634 52.2333 169.348 52.7 167.014 52.7C163.234 52.7 159.898 51.9067 157.004 50.32C154.158 48.7333 151.941 46.5167 150.354 43.67C148.814 40.8233 148.044 37.6033 148.044 34.01C148.044 30.09 148.838 26.66 150.424 23.72C152.058 20.7333 154.181 18.4467 156.794 16.86C159.454 15.2733 162.301 14.48 165.334 14.48C168.321 14.48 171.121 15.25 173.734 16.79C176.348 18.33 178.448 20.4533 180.034 23.16C181.621 25.8667 182.438 28.9 182.484 32.26ZM165.334 20.64C162.721 20.64 160.458 21.3867 158.544 22.88C156.631 24.3267 155.371 26.59 154.764 29.67H175.414V29.11C175.181 26.6367 174.061 24.6067 172.054 23.02C170.094 21.4333 167.854 20.64 165.334 20.64ZM197.416 48.64C197.416 49.5733 197.09 50.3667 196.436 51.02C195.783 51.6733 194.99 52 194.056 52C193.123 52 192.33 51.6733 191.676 51.02C191.07 50.3667 190.766 49.5733 190.766 48.64V3.56C190.766 2.62667 191.093 1.83333 191.746 1.18C192.4 0.526666 193.193 0.199999 194.126 0.199999C195.06 0.199999 195.83 0.526666 196.436 1.18C197.09 1.83333 197.416 2.62667 197.416 3.56V48.64ZM264.145 26.24C265.079 26.24 265.849 26.5667 266.455 27.22C267.109 27.8733 267.435 28.6667 267.435 29.6V45.35C267.435 46.61 266.875 47.59 265.755 48.29C263.609 49.69 261.252 50.7867 258.685 51.58C256.119 52.3267 253.482 52.7 250.775 52.7C246.109 52.7 241.815 51.58 237.895 49.34C234.022 47.1 230.965 44.0667 228.725 40.24C226.485 36.3667 225.365 32.12 225.365 27.5C225.365 22.88 226.485 18.6567 228.725 14.83C230.965 10.9567 234.022 7.9 237.895 5.66C241.815 3.42 246.109 2.3 250.775 2.3C253.109 2.3 255.349 2.55666 257.495 3.07C259.689 3.58333 261.649 4.35333 263.375 5.38C263.935 5.70666 264.355 6.10333 264.635 6.57C264.915 7.03666 265.055 7.55 265.055 8.11C265.055 9.04333 264.729 9.86 264.075 10.56C263.469 11.2133 262.722 11.54 261.835 11.54C261.135 11.54 260.529 11.3767 260.015 11.05C256.982 9.65 253.902 8.95 250.775 8.95C247.415 8.95 244.335 9.76667 241.535 11.4C238.782 13.0333 236.589 15.2733 234.955 18.12C233.369 20.9667 232.575 24.0933 232.575 27.5C232.575 30.9067 233.369 34.0333 234.955 36.88C236.589 39.68 238.782 41.92 241.535 43.6C244.335 45.2333 247.415 46.05 250.775 46.05C252.362 46.05 254.019 45.8633 255.745 45.49C257.519 45.1167 259.035 44.6267 260.295 44.02V32.89H251.825C250.892 32.89 250.099 32.5867 249.445 31.98C248.792 31.3267 248.465 30.5333 248.465 29.6C248.465 28.62 248.792 27.8267 249.445 27.22C250.099 26.5667 250.892 26.24 251.825 26.24H264.145ZM306.704 14.83C307.684 14.83 308.478 15.1567 309.084 15.81C309.738 16.4167 310.064 17.2333 310.064 18.26V48.64C310.064 49.5733 309.738 50.3667 309.084 51.02C308.478 51.6733 307.684 52 306.704 52C305.724 52 304.931 51.6967 304.324 51.09C303.718 50.4367 303.414 49.62 303.414 48.64V46.82C302.201 48.4533 300.544 49.8533 298.444 51.02C296.344 52.14 294.081 52.7 291.654 52.7C288.481 52.7 285.588 51.8833 282.974 50.25C280.408 48.6167 278.378 46.3533 276.884 43.46C275.438 40.52 274.714 37.23 274.714 33.59C274.714 29.95 275.438 26.6833 276.884 23.79C278.378 20.85 280.408 18.5633 282.974 16.93C285.541 15.2967 288.364 14.48 291.444 14.48C293.918 14.48 296.204 14.9933 298.304 16.02C300.451 17.0467 302.154 18.3533 303.414 19.94V18.26C303.414 17.28 303.718 16.4633 304.324 15.81C304.931 15.1567 305.724 14.83 306.704 14.83ZM292.424 46.54C294.618 46.54 296.554 45.98 298.234 44.86C299.961 43.74 301.291 42.2 302.224 40.24C303.204 38.28 303.694 36.0633 303.694 33.59C303.694 31.1633 303.204 28.97 302.224 27.01C301.291 25.05 299.961 23.51 298.234 22.39C296.554 21.2233 294.618 20.64 292.424 20.64C290.231 20.64 288.271 21.2 286.544 22.32C284.864 23.44 283.534 24.98 282.554 26.94C281.621 28.9 281.154 31.1167 281.154 33.59C281.154 36.0633 281.621 38.28 282.554 40.24C283.534 42.2 284.864 43.74 286.544 44.86C288.271 45.98 290.231 46.54 292.424 46.54ZM329.892 21.83V42.69C329.892 45.0233 330.942 46.19 333.042 46.19C333.369 46.19 333.812 46.12 334.372 45.98C334.932 45.7933 335.376 45.7 335.702 45.7C336.309 45.7 336.822 45.9567 337.242 46.47C337.662 46.9833 337.872 47.6367 337.872 48.43C337.872 49.41 337.312 50.25 336.192 50.95C335.072 51.65 333.812 52 332.412 52C330.872 52 329.449 51.8367 328.142 51.51C326.882 51.1833 325.739 50.3667 324.712 49.06C323.732 47.7067 323.242 45.6767 323.242 42.97V21.83H319.182C318.296 21.83 317.549 21.55 316.942 20.99C316.382 20.3833 316.102 19.6367 316.102 18.75C316.102 17.8633 316.382 17.14 316.942 16.58C317.549 16.02 318.296 15.74 319.182 15.74H323.242V9.86C323.242 8.92666 323.546 8.13333 324.152 7.48C324.806 6.82666 325.622 6.5 326.602 6.5C327.536 6.5 328.306 6.82666 328.912 7.48C329.566 8.13333 329.892 8.92666 329.892 9.86V15.74H335.702C336.589 15.74 337.312 16.0433 337.872 16.65C338.479 17.21 338.782 17.9333 338.782 18.82C338.782 19.7067 338.479 20.43 337.872 20.99C337.312 21.55 336.589 21.83 335.702 21.83H329.892ZM378.402 32.26C378.356 33.1 378.006 33.8233 377.352 34.43C376.699 34.99 375.929 35.27 375.042 35.27H350.402C350.729 38.6767 352.012 41.4067 354.252 43.46C356.539 45.5133 359.316 46.54 362.582 46.54C364.822 46.54 366.642 46.2133 368.042 45.56C369.442 44.9067 370.679 44.0667 371.752 43.04C372.452 42.62 373.129 42.41 373.782 42.41C374.576 42.41 375.229 42.69 375.742 43.25C376.302 43.81 376.582 44.4633 376.582 45.21C376.582 46.19 376.116 47.0767 375.182 47.87C373.829 49.2233 372.032 50.3667 369.792 51.3C367.552 52.2333 365.266 52.7 362.932 52.7C359.152 52.7 355.816 51.9067 352.922 50.32C350.076 48.7333 347.859 46.5167 346.272 43.67C344.732 40.8233 343.962 37.6033 343.962 34.01C343.962 30.09 344.756 26.66 346.342 23.72C347.976 20.7333 350.099 18.4467 352.712 16.86C355.372 15.2733 358.219 14.48 361.252 14.48C364.239 14.48 367.039 15.25 369.652 16.79C372.266 18.33 374.366 20.4533 375.952 23.16C377.539 25.8667 378.356 28.9 378.402 32.26ZM361.252 20.64C358.639 20.64 356.376 21.3867 354.462 22.88C352.549 24.3267 351.289 26.59 350.682 29.67H371.332V29.11C371.099 26.6367 369.979 24.6067 367.972 23.02C366.012 21.4333 363.772 20.64 361.252 20.64ZM384.024 46.26C383.604 45.6067 383.394 44.9767 383.394 44.37C383.394 43.4367 383.884 42.6433 384.864 41.99C385.331 41.6633 385.868 41.5 386.474 41.5C387.314 41.5 388.084 41.85 388.784 42.55C390.184 44.1367 391.678 45.3267 393.264 46.12C394.898 46.9133 396.834 47.31 399.074 47.31C400.848 47.2633 402.411 46.8667 403.764 46.12C405.118 45.3267 405.794 44.0667 405.794 42.34C405.794 40.7533 405.094 39.54 403.694 38.7C402.341 37.86 400.334 37.09 397.674 36.39C395.061 35.69 392.891 34.9667 391.164 34.22C389.438 33.4267 387.968 32.3067 386.754 30.86C385.588 29.3667 385.004 27.43 385.004 25.05C385.004 22.95 385.588 21.1067 386.754 19.52C387.968 17.9333 389.554 16.6967 391.514 15.81C393.521 14.9233 395.691 14.48 398.024 14.48C400.264 14.48 402.481 14.9 404.674 15.74C406.914 16.58 408.734 17.8633 410.134 19.59C410.694 20.2433 410.974 20.92 410.974 21.62C410.974 22.3667 410.601 23.09 409.854 23.79C409.388 24.21 408.804 24.42 408.104 24.42C407.264 24.42 406.588 24.14 406.074 23.58C405.094 22.46 403.881 21.5967 402.434 20.99C401.034 20.3833 399.471 20.08 397.744 20.08C395.971 20.08 394.454 20.4533 393.194 21.2C391.981 21.9 391.374 23.1133 391.374 24.84C391.421 26.4733 392.121 27.6867 393.474 28.48C394.874 29.2733 396.998 30.0433 399.844 30.79C402.318 31.4433 404.371 32.1433 406.004 32.89C407.638 33.6367 409.014 34.7567 410.134 36.25C411.254 37.6967 411.814 39.61 411.814 41.99C411.814 44.1833 411.184 46.0967 409.924 47.73C408.664 49.3167 407.008 50.5533 404.954 51.44C402.948 52.28 400.801 52.7 398.514 52.7C395.574 52.7 392.844 52.1867 390.324 51.16C387.851 50.1333 385.751 48.5 384.024 46.26Z" fill="white"/>
</svg>
